<?xml version="1.0" encoding="utf-8"?>
<!-- Svg Vector Icons : http://www.onlinewebfonts.com/icon -->
<!DOCTYPE svg PUBLIC "-//W3C//DTD SVG 1.1//EN" "http://www.w3.org/Graphics/SVG/1.1/DTD/svg11.dtd">
<svg version="1.1" xmlns="http://www.w3.org/2000/svg" xmlns:xlink="http://www.w3.org/1999/xlink" x="0px" y="0px" 
viewBox="0 0 1000 1000" enable-background="new 0 0 1000 1000" xml:space="preserve">
<metadata> Svg Vector Icons : http://www.onlinewebfonts.com/icon </metadata>
<g><path fill="#0288d1" d="M497,13.1c135.6,0,259,55.5,345.1,141.7C934.7,241.1,990,364.3,990,500c0,135.6-55.3,258.8-141.7,345.2C762,931.6,638.8,986.9,503.1,986.9c-135.7,0-258.9-55.3-345.2-141.7C65.5,758.8,10,635.6,10,500c0-135.7,55.5-258.9,141.8-345.2C244.3,68.5,361.4,13.1,497,13.1L497,13.1L497,13.1z M460.1,167.1c0-24.7,18.5-37,37-37c18.5,0,37,18.5,37,37v295.8h246.5c18.5,0,37,18.5,37,37c0,18.5-18.5,37-37,37H497l0,0c-18.5,0-37-18.5-37-36.9L460.1,167.1L460.1,167.1L460.1,167.1z M792.9,210.3C719,136.3,614.1,87,503.2,87c-117.1,0-215.7,49.3-289.7,123.3C139.5,284.2,90.2,389.1,90.2,500c0,110.9,49.3,215.7,123.3,289.7c74,74,178.8,123.4,289.7,123.4c110.9,0,215.7-49.3,289.7-123.4c74-73.9,123.3-178.7,123.3-289.7C910,389.1,866.9,284.2,792.9,210.3L792.9,210.3L792.9,210.3z"/></g>
</svg>